<svg width="32" height="32" viewBox="0 0 32 32" fill="none" xmlns="http://www.w3.org/2000/svg">
<path d="M18.4923 11.4669L24.6123 17.5869C24.8606 17.8367 25 18.1747 25 18.5269C25 18.8792 24.8606 19.2171 24.6123 19.4669C24.4883 19.5919 24.3409 19.6911 24.1784 19.7588C24.0159 19.8265 23.8416 19.8613 23.6656 19.8613C23.4896 19.8613 23.3153 19.8265 23.1528 19.7588C22.9904 19.6911 22.8429 19.5919 22.7189 19.4669L16.6123 13.3336C16.4883 13.2086 16.3409 13.1094 16.1784 13.0417C16.0159 12.9741 15.8416 12.9392 15.6656 12.9392C15.4896 12.9392 15.3153 12.9741 15.1528 13.0417C14.9904 13.1094 14.8429 13.2086 14.7189 13.3336L8.61227 19.4669C8.36297 19.718 8.02414 19.8598 7.67032 19.861C7.31651 19.8623 6.97668 19.7229 6.72561 19.4736C6.47454 19.2243 6.33278 18.8855 6.33153 18.5316C6.33028 18.1778 6.46964 17.838 6.71894 17.5869L12.8389 11.4669C13.5889 10.7179 14.6056 10.2971 15.6656 10.2971C16.7256 10.2971 17.7423 10.7179 18.4923 11.4669Z" fill="#0B0B0B"/>
</svg>
