<svg width="56" height="56" viewBox="0 0 56 56" fill="none" xmlns="http://www.w3.org/2000/svg">
<mask id="mask0_165_62" style="mask-type:luminance" maskUnits="userSpaceOnUse" x="0" y="0" width="56" height="56">
<path d="M0 0H56V56H0V0Z" fill="white"/>
</mask>
<g mask="url(#mask0_165_62)">
<path d="M50.4042 42.9051C49.8852 44.8419 47.8944 46.4121 45.9575 46.4121C44.0206 46.4121 42.8711 44.8419 43.3901 42.9051C43.9091 40.9682 45.8999 39.398 47.8369 39.398C49.7738 39.398 50.9232 40.9682 50.4042 42.9051Z" stroke="#0B0B0B" stroke-width="1.40625" stroke-miterlimit="10" stroke-linecap="round" stroke-linejoin="round"/>
<path d="M46.9059 42.9053H46.8972" stroke="#0B0B0B" stroke-width="1.40625" stroke-miterlimit="10" stroke-linecap="round" stroke-linejoin="round"/>
<path d="M23.2245 42.9051C22.7056 44.8419 20.7147 46.4121 18.7778 46.4121C16.8409 46.4121 15.6914 44.8419 16.2104 42.9051C16.7294 40.9682 18.7203 39.398 20.6572 39.398C22.5941 39.398 23.7435 40.9682 23.2245 42.9051Z" stroke="#0B0B0B" stroke-width="1.40625" stroke-miterlimit="10" stroke-linecap="round" stroke-linejoin="round"/>
<path d="M19.7262 42.9053H19.7175" stroke="#0B0B0B" stroke-width="1.40625" stroke-miterlimit="10" stroke-linecap="round" stroke-linejoin="round"/>
<path d="M23.2245 42.9053H43.3901" stroke="#0B0B0B" stroke-width="1.40625" stroke-miterlimit="10" stroke-linecap="round" stroke-linejoin="round"/>
<path d="M36.7676 20.1094H42.4842C42.9683 20.1094 43.2557 20.502 43.126 20.9862L37.2528 42.9053" stroke="#0B0B0B" stroke-width="1.40625" stroke-miterlimit="10" stroke-linecap="round" stroke-linejoin="round"/>
<path d="M16.2104 42.9053H11.8266C11.3424 42.9053 11.0551 42.5127 11.1848 42.0285L12.8293 35.8909" stroke="#0B0B0B" stroke-width="1.40625" stroke-miterlimit="10" stroke-linecap="round" stroke-linejoin="round"/>
<path d="M42.8911 21.8629H50.3194C51.1101 21.8629 51.6612 22.3922 51.6649 23.1551L51.7048 31.5073L54.6693 33.6269C55.1126 33.9437 55.2828 34.5145 55.1178 35.1305L53.5044 41.1517C53.2449 42.1202 52.2495 42.9053 51.281 42.9053H50.4042" stroke="#0B0B0B" stroke-width="1.40625" stroke-miterlimit="10" stroke-linecap="round" stroke-linejoin="round"/>
<path d="M54.9139 35.8911H53.1604" stroke="#0B0B0B" stroke-width="1.40625" stroke-miterlimit="10" stroke-linecap="round" stroke-linejoin="round"/>
<path d="M49.6533 35.8911H39.1322" stroke="#0B0B0B" stroke-width="1.40625" stroke-miterlimit="10" stroke-linecap="round" stroke-linejoin="round"/>
<path d="M51.7047 31.5073H45.5674C44.599 31.5073 44.0242 30.7222 44.2838 29.7538L44.9885 27.1235C45.248 26.1551 46.2434 25.37 47.2118 25.37H51.5957" stroke="#0B0B0B" stroke-width="1.40625" stroke-miterlimit="10" stroke-linecap="round" stroke-linejoin="round"/>
<path d="M33.2606 21.863C33.2606 28.642 27.765 34.1377 20.9858 34.1377C14.2067 34.1377 8.71112 28.642 8.71112 21.863C8.71112 15.0839 14.2067 9.58825 20.9858 9.58825C27.765 9.58825 33.2606 15.0839 33.2606 21.863Z" stroke="#0B0B0B" stroke-width="1.40625" stroke-miterlimit="10" stroke-linecap="round" stroke-linejoin="round"/>
<path d="M22.7394 21.8627C22.7394 22.8311 21.9543 23.6162 20.9859 23.6162C20.0173 23.6162 19.2324 22.8311 19.2324 21.8627C19.2324 20.8943 20.0173 20.1092 20.9859 20.1092C21.9543 20.1092 22.7394 20.8943 22.7394 21.8627Z" stroke="#0B0B0B" stroke-width="1.40625" stroke-miterlimit="10" stroke-linecap="round" stroke-linejoin="round"/>
<path d="M22.3558 20.4927L27.1232 15.7253" stroke="#0B0B0B" stroke-width="1.40625" stroke-miterlimit="10" stroke-linecap="round" stroke-linejoin="round"/>
<path d="M17.4788 25.3696L19.6707 23.1776" stroke="#0B0B0B" stroke-width="1.40625" stroke-miterlimit="10" stroke-linecap="round" stroke-linejoin="round"/>
<path d="M20.9858 13.0949V13.9717" stroke="#0B0B0B" stroke-width="1.40625" stroke-miterlimit="10" stroke-linecap="round" stroke-linejoin="round"/>
<path d="M20.9858 29.7536V30.6304" stroke="#0B0B0B" stroke-width="1.40625" stroke-miterlimit="10" stroke-linecap="round" stroke-linejoin="round"/>
<path d="M29.7535 21.8628H28.8767" stroke="#0B0B0B" stroke-width="1.40625" stroke-miterlimit="10" stroke-linecap="round" stroke-linejoin="round"/>
<path d="M13.095 21.8628H12.2182" stroke="#0B0B0B" stroke-width="1.40625" stroke-miterlimit="10" stroke-linecap="round" stroke-linejoin="round"/>
<path d="M9.58792 33.2607H0.820312" stroke="#0B0B0B" stroke-width="1.40625" stroke-miterlimit="10" stroke-linecap="round" stroke-linejoin="round"/>
<path d="M8.71111 36.7676H3.4505" stroke="#0B0B0B" stroke-width="1.40625" stroke-miterlimit="10" stroke-linecap="round" stroke-linejoin="round"/>
<path d="M7.83437 40.2749H6.08087" stroke="#0B0B0B" stroke-width="1.40625" stroke-miterlimit="10" stroke-linecap="round" stroke-linejoin="round"/>
</g>
</svg>
