<svg width="20" height="25" viewBox="0 0 20 25" fill="none" xmlns="http://www.w3.org/2000/svg">
<path d="M17.7687 9.93563H16.6455V6.67481C16.6455 2.99428 13.6512 0 9.97059 0C6.29006 0 3.29569 2.99428 3.29569 6.67481V9.93563H2.17256C0.974625 9.93563 0 10.9102 0 12.1082V21.889C0 23.087 0.974625 24.0616 2.17256 24.0616H17.7687C18.9667 24.0616 19.9413 23.087 19.9413 21.889V12.1082C19.9413 10.9102 18.9667 9.93563 17.7687 9.93563ZM4.662 6.67491C4.662 3.74775 7.04344 1.36631 9.97069 1.36631C12.8979 1.36631 15.2794 3.74775 15.2794 6.67491V9.93572H4.662V6.67491ZM18.5751 21.889C18.5751 22.3336 18.2133 22.6954 17.7687 22.6954H2.17256C1.72791 22.6954 1.36622 22.3336 1.36622 21.889V12.1082C1.36622 11.6636 1.728 11.3018 2.17256 11.3018H17.7687C18.2133 11.3018 18.5751 11.6635 18.5751 12.1082V21.889Z" fill="#0B0B0B"/>
</svg>
