<svg width="44" height="21" viewBox="0 0 44 21" fill="none" xmlns="http://www.w3.org/2000/svg">
<path d="M41.957 7.81659C38.3092 7.43175 35.4411 4.87134 34.982 1.59028C34.8551 0.683625 34.076 0 33.1696 0H10.4086C9.50231 0 8.72316 0.683625 8.59631 1.59028C8.13713 4.87144 5.26894 7.43175 1.62131 7.81659C0.697031 7.91409 0 8.69494 0 9.63281V16.9682C0 18.0341 0.0552187 19.1118 0.164156 20.1713C0.200344 20.5229 0.496969 20.7847 0.842906 20.7847C0.86625 20.7847 0.889875 20.7834 0.913594 20.781C1.28887 20.7425 1.56188 20.4069 1.52325 20.0317C1.41909 19.0183 1.36622 17.9876 1.36622 16.9682V9.63281C1.36622 9.39984 1.54125 9.19875 1.76466 9.17522C6.03741 8.72447 9.40303 5.68322 9.94941 1.77956C9.98297 1.54003 10.176 1.36622 10.4086 1.36622H33.1695C33.4021 1.36622 33.5953 1.54003 33.6288 1.77956C34.175 5.68322 37.5407 8.72438 41.8134 9.17522C42.0368 9.19875 42.2119 9.39984 42.2119 9.63281V16.9682C42.2119 17.9768 42.1601 18.9968 42.0581 20.0001C42.02 20.3753 42.2933 20.7106 42.6686 20.7488C43.0437 20.7872 43.3792 20.5135 43.4174 20.1383C43.5241 19.0894 43.5781 18.0229 43.5781 16.9682V9.63281C43.5782 8.69494 42.8813 7.91409 41.957 7.81659Z" fill="#0B0B0B"/>
</svg>
