<svg width="39" height="47" viewBox="0 0 39 47" fill="none" xmlns="http://www.w3.org/2000/svg">
<path d="M32.5786 31.9468L35.6055 40.9671C36.0294 42.2304 34.9746 43.4977 33.6554 43.3102L29.1185 42.6654L26.0091 46.0195C25.0925 47.0082 23.4534 46.6679 23.006 45.3961L20.6071 38.5762" stroke="#0B0B0B" stroke-width="1.40625" stroke-miterlimit="10" stroke-linecap="round" stroke-linejoin="round"/>
<path d="M3.60697 39.4953L3.1131 40.9671C2.68916 42.2304 3.74394 43.4977 5.06319 43.3102L9.60003 42.6654L12.7094 46.0195C13.626 47.0081 15.2652 46.6679 15.7125 45.3961L18.1069 38.5893" stroke="#0B0B0B" stroke-width="1.40625" stroke-miterlimit="10" stroke-linecap="round" stroke-linejoin="round"/>
<path d="M6.14572 31.9301L4.63409 36.4346" stroke="#0B0B0B" stroke-width="1.40625" stroke-miterlimit="10" stroke-linecap="round" stroke-linejoin="round"/>
<path d="M34.0414 7.69411C35.9074 8.65627 37.0063 10.6728 36.7815 12.7813L36.7809 12.7867C36.6465 14.0478 36.9854 15.3139 37.7318 16.3392L37.7389 16.349C39.0452 18.1433 39.0452 20.5754 37.7389 22.3696L37.7318 22.3795C36.9854 23.4047 36.6465 24.6708 36.7809 25.932L36.7815 25.9375C37.0171 28.1479 35.7979 30.2575 33.765 31.1568C32.6014 31.6715 31.6715 32.6014 31.1568 33.765C30.2575 35.7979 28.1479 37.0171 25.9374 36.7815L25.932 36.7809C24.6708 36.6465 23.4047 36.9854 22.3795 37.7318L22.3696 37.7389C20.5754 39.0452 18.1433 39.0452 16.349 37.7389L16.3392 37.7318C15.3139 36.9854 14.0478 36.6465 12.7867 36.7809L12.7812 36.7815C10.5707 37.0171 8.46117 35.7979 7.56183 33.765C7.04714 32.6014 6.11723 31.6715 4.9537 31.1568C2.92073 30.2575 1.70152 28.1479 1.9372 25.9374L1.93777 25.932C2.0722 24.6708 1.7333 23.4047 0.986859 22.3795L0.979734 22.3696C-0.326578 20.5754 -0.326578 18.1433 0.979734 16.349L0.986859 16.3392C1.7333 15.3139 2.0722 14.0478 1.93777 12.7867L1.9372 12.7812C1.70152 10.5707 2.92073 8.46117 4.9537 7.56183C6.11723 7.04714 7.04714 6.11723 7.56183 4.9537C8.46117 2.92073 10.5707 1.70152 12.7813 1.9372L12.7867 1.93777C14.0478 2.0722 15.3139 1.7333 16.3392 0.986859L16.349 0.979734C18.1433 -0.326578 20.5754 -0.326578 22.3696 0.979734L22.3795 0.986859C23.4047 1.7333 24.6708 2.0722 25.932 1.93777L25.9375 1.9372C28.1479 1.70152 30.2575 2.92073 31.1568 4.9537C31.2625 5.19248 31.3856 5.42152 31.5247 5.63911" stroke="#0B0B0B" stroke-width="1.40625" stroke-miterlimit="10" stroke-linecap="round" stroke-linejoin="round"/>
<path d="M19.3593 31.5468C26.0903 31.5468 31.5468 26.0902 31.5468 19.3593C31.5468 12.6283 26.0903 7.17175 19.3593 7.17175C12.6283 7.17175 7.17181 12.6283 7.17181 19.3593C7.17181 26.0902 12.6283 31.5468 19.3593 31.5468Z" stroke="#0B0B0B" stroke-width="1.40625" stroke-miterlimit="10" stroke-linecap="round" stroke-linejoin="round"/>
<path d="M11.4056 6.63925C13.7113 5.19447 16.4377 4.35925 19.3593 4.35925C27.6436 4.35925 34.3593 11.0749 34.3593 19.3593C34.3593 27.6436 27.6436 34.3593 19.3593 34.3593C11.075 34.3593 4.35931 27.6436 4.35931 19.3593C4.35931 15.1866 6.06303 11.412 8.81272 8.69294" stroke="#0B0B0B" stroke-width="1.40625" stroke-miterlimit="10" stroke-linecap="round" stroke-linejoin="round"/>
<path d="M24.1389 25.1596C23.7905 25.5246 23.3962 25.852 22.9607 26.1332L19.3962 28.4345C19.385 28.4418 19.3726 28.4454 19.3594 28.4454C19.3462 28.4454 19.3338 28.4418 19.3227 28.4345L15.7581 26.1332C13.9037 24.9361 12.7968 22.9011 12.7968 20.6899V12.9171C13.1643 12.9613 13.5348 12.9835 13.9038 12.9835C15.8531 12.9835 17.7812 12.3554 19.3593 11.2105C20.9373 12.3554 22.8654 12.9835 24.8149 12.9835C25.1838 12.9835 25.5543 12.9613 25.9218 12.9171V20.6899C25.9218 21.2438 25.8523 21.7866 25.7191 22.3081" stroke="#0B0B0B" stroke-width="1.40625" stroke-miterlimit="10" stroke-linecap="round" stroke-linejoin="round"/>
<path d="M22.5319 17.3538L18.751 22.2499L16.1867 19.3814" stroke="#0B0B0B" stroke-width="1.40625" stroke-miterlimit="10" stroke-linecap="round" stroke-linejoin="round"/>
</svg>
