<?xml version="1.0" standalone="no"?>
<!DOCTYPE svg PUBLIC "-//W3C//DTD SVG 20010904//EN"
 "http://www.w3.org/TR/2001/REC-SVG-20010904/DTD/svg10.dtd">
<svg version="1.0" xmlns="http://www.w3.org/2000/svg"
 width="1535.000000pt" height="1494.000000pt" viewBox="0 0 1535.000000 1494.000000"
 preserveAspectRatio="xMidYMid meet">

<g transform="translate(0.000000,1494.000000) scale(0.100000,-0.100000)"
fill="#000000" stroke="none">
<path d="M6169 6803 c-72 -167 -478 -1120 -828 -1943 -381 -896 -408 -965
-388 -968 12 -1 557 52 1212 117 654 66 1191 118 1193 116 2 -2 -19 -70 -47
-150 -28 -80 -51 -148 -51 -151 0 -2 356 -3 791 -2 l792 3 544 785 c299 431
540 786 535 788 -5 1 -508 -43 -1118 -98 -610 -56 -1121 -100 -1135 -98 -24 3
-13 22 218 373 504 764 833 1266 833 1270 0 3 -569 5 -1265 5 l-1266 0 -20
-47z"/>
</g>
</svg>
