<svg width="56" height="56" viewBox="0 0 56 56" fill="none" xmlns="http://www.w3.org/2000/svg">
<mask id="mask0_154_294" style="mask-type:luminance" maskUnits="userSpaceOnUse" x="0" y="0" width="56" height="56">
<path d="M0 0H56V56H0V0Z" fill="white"/>
</mask>
<g mask="url(#mask0_154_294)">
<path d="M50.4042 42.905C49.8852 44.8418 47.8944 46.412 45.9575 46.412C44.0206 46.412 42.8711 44.8418 43.3901 42.905C43.9091 40.9681 45.8999 39.3979 47.8369 39.3979C49.7738 39.3979 50.9232 40.9681 50.4042 42.905Z" stroke="#0B0B0B" stroke-width="1.40625" stroke-miterlimit="10" stroke-linecap="round" stroke-linejoin="round"/>
<path d="M46.9059 42.905H46.8972" stroke="#0B0B0B" stroke-width="1.40625" stroke-miterlimit="10" stroke-linecap="round" stroke-linejoin="round"/>
<path d="M23.2245 42.905C22.7056 44.8418 20.7147 46.412 18.7778 46.412C16.8409 46.412 15.6914 44.8418 16.2104 42.905C16.7294 40.9681 18.7203 39.3979 20.6572 39.3979C22.5941 39.3979 23.7435 40.9681 23.2245 42.905Z" stroke="#0B0B0B" stroke-width="1.40625" stroke-miterlimit="10" stroke-linecap="round" stroke-linejoin="round"/>
<path d="M19.7262 42.905H19.7175" stroke="#0B0B0B" stroke-width="1.40625" stroke-miterlimit="10" stroke-linecap="round" stroke-linejoin="round"/>
<path d="M23.2245 42.905H43.3901" stroke="#0B0B0B" stroke-width="1.40625" stroke-miterlimit="10" stroke-linecap="round" stroke-linejoin="round"/>
<path d="M36.7676 20.1091H42.4842C42.9683 20.1091 43.2557 20.5017 43.126 20.9859L37.2528 42.905" stroke="#0B0B0B" stroke-width="1.40625" stroke-miterlimit="10" stroke-linecap="round" stroke-linejoin="round"/>
<path d="M16.2104 42.905H11.8266C11.3424 42.905 11.0551 42.5124 11.1848 42.0282L12.8293 35.8906" stroke="#0B0B0B" stroke-width="1.40625" stroke-miterlimit="10" stroke-linecap="round" stroke-linejoin="round"/>
<path d="M42.8911 21.8626H50.3194C51.1101 21.8626 51.6612 22.3919 51.6649 23.1548L51.7048 31.507L54.6693 33.6266C55.1126 33.9434 55.2828 34.5142 55.1178 35.1302L53.5044 41.1514C53.2449 42.1199 52.2495 42.905 51.281 42.905H50.4042" stroke="#0B0B0B" stroke-width="1.40625" stroke-miterlimit="10" stroke-linecap="round" stroke-linejoin="round"/>
<path d="M54.9139 35.8908H53.1604" stroke="#0B0B0B" stroke-width="1.40625" stroke-miterlimit="10" stroke-linecap="round" stroke-linejoin="round"/>
<path d="M49.6533 35.8908H39.1322" stroke="#0B0B0B" stroke-width="1.40625" stroke-miterlimit="10" stroke-linecap="round" stroke-linejoin="round"/>
<path d="M51.7047 31.507H45.5674C44.599 31.507 44.0242 30.7219 44.2838 29.7535L44.9885 27.1232C45.248 26.1547 46.2434 25.3697 47.2118 25.3697H51.5957" stroke="#0B0B0B" stroke-width="1.40625" stroke-miterlimit="10" stroke-linecap="round" stroke-linejoin="round"/>
<path d="M33.2606 21.8626C33.2606 28.6417 27.765 34.1373 20.9858 34.1373C14.2067 34.1373 8.71112 28.6417 8.71112 21.8626C8.71112 15.0835 14.2067 9.58789 20.9858 9.58789C27.765 9.58789 33.2606 15.0835 33.2606 21.8626Z" stroke="#0B0B0B" stroke-width="1.40625" stroke-miterlimit="10" stroke-linecap="round" stroke-linejoin="round"/>
<path d="M22.7394 21.8626C22.7394 22.8311 21.9543 23.6161 20.9859 23.6161C20.0173 23.6161 19.2324 22.8311 19.2324 21.8626C19.2324 20.8942 20.0173 20.1091 20.9859 20.1091C21.9543 20.1091 22.7394 20.8942 22.7394 21.8626Z" stroke="#0B0B0B" stroke-width="1.40625" stroke-miterlimit="10" stroke-linecap="round" stroke-linejoin="round"/>
<path d="M22.3558 20.4927L27.1232 15.7253" stroke="#0B0B0B" stroke-width="1.40625" stroke-miterlimit="10" stroke-linecap="round" stroke-linejoin="round"/>
<path d="M17.4788 25.3697L19.6707 23.1777" stroke="#0B0B0B" stroke-width="1.40625" stroke-miterlimit="10" stroke-linecap="round" stroke-linejoin="round"/>
<path d="M20.9858 13.095V13.9717" stroke="#0B0B0B" stroke-width="1.40625" stroke-miterlimit="10" stroke-linecap="round" stroke-linejoin="round"/>
<path d="M20.9858 29.7535V30.6302" stroke="#0B0B0B" stroke-width="1.40625" stroke-miterlimit="10" stroke-linecap="round" stroke-linejoin="round"/>
<path d="M29.7535 21.8626H28.8767" stroke="#0B0B0B" stroke-width="1.40625" stroke-miterlimit="10" stroke-linecap="round" stroke-linejoin="round"/>
<path d="M13.095 21.8626H12.2182" stroke="#0B0B0B" stroke-width="1.40625" stroke-miterlimit="10" stroke-linecap="round" stroke-linejoin="round"/>
<path d="M9.58792 33.2606H0.820312" stroke="#0B0B0B" stroke-width="1.40625" stroke-miterlimit="10" stroke-linecap="round" stroke-linejoin="round"/>
<path d="M8.71111 36.7676H3.4505" stroke="#0B0B0B" stroke-width="1.40625" stroke-miterlimit="10" stroke-linecap="round" stroke-linejoin="round"/>
<path d="M7.83437 40.2747H6.08087" stroke="#0B0B0B" stroke-width="1.40625" stroke-miterlimit="10" stroke-linecap="round" stroke-linejoin="round"/>
</g>
</svg>
