<svg width="642" height="638" viewBox="0 0 642 638" fill="none" xmlns="http://www.w3.org/2000/svg">
<mask id="mask0_154_177" style="mask-type:alpha" maskUnits="userSpaceOnUse" x="0" y="0" width="642" height="638">
<rect width="642" height="638" fill="#D9D9D9"/>
</mask>
<g mask="url(#mask0_154_177)">
<g opacity="0.08">
<line x1="25.5001" y1="-230" x2="25.5" y2="575" stroke="white"/>
<line x1="25.5001" y1="-230" x2="25.5" y2="575" stroke="white"/>
<line x1="62.5001" y1="-230" x2="62.5" y2="575" stroke="white"/>
<line x1="62.5001" y1="-230" x2="62.5" y2="575" stroke="white"/>
<line x1="99.5001" y1="-230" x2="99.5" y2="575" stroke="white"/>
<line x1="99.5001" y1="-230" x2="99.5" y2="575" stroke="white"/>
<line x1="136.5" y1="-230" x2="136.5" y2="575" stroke="white"/>
<line x1="136.5" y1="-230" x2="136.5" y2="575" stroke="white"/>
<line x1="173.5" y1="-230" x2="173.5" y2="575" stroke="white"/>
<line x1="173.5" y1="-230" x2="173.5" y2="575" stroke="white"/>
<line x1="210.5" y1="-230" x2="210.5" y2="575" stroke="white"/>
<line x1="210.5" y1="-230" x2="210.5" y2="575" stroke="white"/>
<line x1="247.5" y1="-230" x2="247.5" y2="575" stroke="white"/>
<line x1="247.5" y1="-230" x2="247.5" y2="575" stroke="white"/>
<line x1="284.5" y1="-230" x2="284.5" y2="575" stroke="white"/>
<line x1="284.5" y1="-230" x2="284.5" y2="575" stroke="white"/>
<line x1="321.5" y1="-230" x2="321.5" y2="575" stroke="white"/>
<line x1="321.5" y1="-230" x2="321.5" y2="575" stroke="white"/>
<line x1="358.5" y1="-230" x2="358.5" y2="575" stroke="white"/>
<line x1="358.5" y1="-230" x2="358.5" y2="575" stroke="white"/>
<line x1="395.5" y1="-230" x2="395.5" y2="575" stroke="white"/>
<line x1="395.5" y1="-230" x2="395.5" y2="575" stroke="white"/>
<line x1="430.5" y1="-230" x2="430.5" y2="575" stroke="white"/>
<line x1="430.5" y1="-230" x2="430.5" y2="575" stroke="white"/>
<line x1="467.5" y1="-230" x2="467.5" y2="575" stroke="white"/>
<line x1="467.5" y1="-230" x2="467.5" y2="575" stroke="white"/>
<line x1="504.5" y1="-230" x2="504.5" y2="575" stroke="white"/>
<line x1="504.5" y1="-230" x2="504.5" y2="575" stroke="white"/>
<line x1="541.5" y1="-230" x2="541.5" y2="575" stroke="white"/>
<line x1="541.5" y1="-230" x2="541.5" y2="575" stroke="white"/>
<line x1="578.5" y1="-230" x2="578.5" y2="575" stroke="white"/>
<line x1="578.5" y1="-230" x2="578.5" y2="575" stroke="white"/>
<line x1="615.5" y1="-230" x2="615.5" y2="575" stroke="white"/>
<line x1="615.5" y1="-230" x2="615.5" y2="575" stroke="white"/>
<line x1="784.094" y1="37.9685" x2="-197" y2="37.9685" stroke="white"/>
<line x1="784.094" y1="37.9685" x2="-197" y2="37.9685" stroke="white"/>
<line x1="784.094" y1="83.0623" x2="-197" y2="83.0622" stroke="white"/>
<line x1="784.094" y1="83.0623" x2="-197" y2="83.0622" stroke="white"/>
<line x1="784.094" y1="128.156" x2="-197" y2="128.156" stroke="white"/>
<line x1="784.094" y1="128.156" x2="-197" y2="128.156" stroke="white"/>
<line x1="784.094" y1="173.25" x2="-197" y2="173.25" stroke="white"/>
<line x1="784.094" y1="173.25" x2="-197" y2="173.25" stroke="white"/>
<line x1="784.094" y1="218.344" x2="-197" y2="218.343" stroke="white"/>
<line x1="784.094" y1="218.344" x2="-197" y2="218.343" stroke="white"/>
<line x1="784.094" y1="263.437" x2="-197" y2="263.437" stroke="white"/>
<line x1="784.094" y1="263.437" x2="-197" y2="263.437" stroke="white"/>
<line x1="784.094" y1="308.531" x2="-197" y2="308.531" stroke="white"/>
<line x1="784.094" y1="308.531" x2="-197" y2="308.531" stroke="white"/>
<line x1="784.094" y1="353.625" x2="-197" y2="353.625" stroke="white"/>
<line x1="784.094" y1="353.625" x2="-197" y2="353.625" stroke="white"/>
<line x1="784.094" y1="398.719" x2="-197" y2="398.718" stroke="white"/>
<line x1="784.094" y1="398.719" x2="-197" y2="398.718" stroke="white"/>
<line x1="784.094" y1="443.812" x2="-197" y2="443.812" stroke="white"/>
<line x1="784.094" y1="443.812" x2="-197" y2="443.812" stroke="white"/>
<line x1="784.094" y1="488.906" x2="-197" y2="488.906" stroke="white"/>
<line x1="784.094" y1="488.906" x2="-197" y2="488.906" stroke="white"/>
<line x1="784.094" y1="534" x2="-197" y2="534" stroke="white"/>
<line x1="784.094" y1="534" x2="-197" y2="534" stroke="white"/>
</g>
</g>
</svg>
