<svg width="43" height="25" viewBox="0 0 43 25" fill="none" xmlns="http://www.w3.org/2000/svg">
<path d="M41.542 0.0555981C41.174 -0.0276519 40.8082 0.203254 40.7252 0.571316C38.6447 9.77541 32.3083 17.7576 23.3405 22.471L21.2566 23.5664C21.122 23.6371 20.9614 23.6371 20.8268 23.5664L18.7429 22.471C9.76104 17.7502 3.42148 9.75422 1.34969 0.533535C1.2671 0.165472 0.901476 -0.0659958 0.533507 0.0167855C0.165444 0.099473 -0.0659308 0.46491 0.0167567 0.832972C2.17638 10.4453 8.7701 18.7728 18.1072 23.6803L20.1912 24.7757C20.4575 24.9156 20.7496 24.9856 21.0417 24.9856C21.3337 24.9856 21.6259 24.9156 21.8922 24.7756L23.9762 23.6802C33.2986 18.7804 39.889 10.4673 42.0578 0.872442C42.1409 0.504473 41.91 0.138754 41.542 0.0555981Z" fill="#0B0B0B"/>
</svg>
