<svg width="37" height="41" viewBox="0 0 37 41" fill="none" xmlns="http://www.w3.org/2000/svg">
<path d="M35.5087 7.25625C32.5678 6.09253 30.2336 3.94922 28.936 1.22128C28.5832 0.479438 27.8204 0 26.9927 0H9.87375C9.04613 0 8.28337 0.479344 7.9305 1.22128C6.633 3.94922 4.29872 6.09253 1.35787 7.25625C0.532969 7.58259 0 8.36897 0 9.2595V13.4231C0 18.8812 1.59159 24.2728 4.60275 29.0154C7.64316 33.8045 12.0488 37.8067 17.3432 40.5894L17.4294 40.6348C17.7438 40.8 18.0885 40.8826 18.4333 40.8826C18.7779 40.8826 19.1227 40.8 19.4369 40.6349L19.5234 40.5894C24.8179 37.8067 29.2235 33.8045 32.264 29.0154C35.275 24.2727 36.8666 18.8811 36.8666 13.4231V9.2595C36.8666 8.36887 36.3335 7.58259 35.5087 7.25625ZM35.5004 13.4232C35.5004 18.6214 33.9824 23.7598 31.1106 28.2832C28.1978 32.871 23.9712 36.7083 18.888 39.3802L18.8015 39.4255C18.5709 39.5468 18.2957 39.5467 18.0651 39.4255L17.9788 39.3802C12.8954 36.7084 8.66878 32.8711 5.75597 28.2832C2.88412 23.7599 1.36612 18.6214 1.36612 13.4231V9.2595C1.36612 8.93316 1.56019 8.64544 1.86047 8.52666C5.12391 7.23534 7.71769 4.84931 9.16416 1.80816C9.29175 1.53975 9.57028 1.36631 9.87366 1.36631H26.9928C27.2962 1.36631 27.5746 1.53975 27.7023 1.80816C29.1488 4.84931 31.7427 7.23534 35.0061 8.52675C35.3063 8.64553 35.5004 8.93325 35.5004 9.25959V13.4232Z" fill="#0B0B0B"/>
</svg>
